<svg width="26" height="25" viewBox="0 0 26 25" fill="none" xmlns="http://www.w3.org/2000/svg">
<g filter="url(#filter0_d_104_37)">
<circle cx="13.0318" cy="11.35" r="10.9318" fill="#857AFF"/>
<g clip-path="url(#clip0_104_37)">
<path d="M16.7318 3.78179H10.0045C9.78146 3.78179 9.56757 3.86054 9.40987 4.00072C9.25217 4.1409 9.16357 4.33102 9.16357 4.52926V16.4889C9.16357 16.6871 9.25217 16.8772 9.40987 17.0174C9.56757 17.1576 9.78146 17.2363 10.0045 17.2363H16.7318C16.9548 17.2363 17.1687 17.1576 17.3264 17.0174C17.4841 16.8772 17.5727 16.6871 17.5727 16.4889V4.52926C17.5727 4.33102 17.4841 4.1409 17.3264 4.00072C17.1687 3.86054 16.9548 3.78179 16.7318 3.78179V3.78179ZM12.9477 4.52926H13.7886C13.8987 4.53305 14.0032 4.57364 14.0812 4.64293C14.1591 4.71221 14.2048 4.80509 14.209 4.903C14.2049 5.00094 14.1592 5.09387 14.0813 5.16317C14.0033 5.23247 13.8988 5.27304 13.7886 5.27674H12.9477C12.8369 5.27455 12.7314 5.23447 12.6531 5.16485C12.5748 5.09523 12.5297 5.00143 12.5272 4.903C12.5298 4.8046 12.5749 4.71085 12.6532 4.64125C12.7315 4.57165 12.837 4.53154 12.9477 4.52926ZM13.3681 16.9C13.1935 16.9 13.0228 16.8539 12.8776 16.7677C12.7324 16.6815 12.6192 16.5589 12.5524 16.4155C12.4855 16.2721 12.4681 16.1143 12.5021 15.962C12.5362 15.8098 12.6203 15.6699 12.7438 15.5601C12.8673 15.4504 13.0246 15.3756 13.1959 15.3454C13.3671 15.3151 13.5447 15.3306 13.706 15.39C13.8674 15.4494 14.0052 15.55 14.1023 15.6791C14.1993 15.8082 14.2511 15.9599 14.2511 16.1151C14.2511 16.2182 14.2282 16.3202 14.1839 16.4155C14.1395 16.5107 14.0745 16.5972 13.9925 16.6701C13.9105 16.743 13.8131 16.8008 13.706 16.8402C13.5989 16.8797 13.4841 16.9 13.3681 16.9ZM16.7318 14.9939H10.0045V6.02421H16.7318V14.9939Z" fill="black"/>
</g>
</g>
<defs>
<filter id="filter0_d_104_37" x="0.754521" y="0.418182" width="24.5546" height="24.5545" filterUnits="userSpaceOnUse" color-interpolation-filters="sRGB">
<feFlood flood-opacity="0" result="BackgroundImageFix"/>
<feColorMatrix in="SourceAlpha" type="matrix" values="0 0 0 0 0 0 0 0 0 0 0 0 0 0 0 0 0 0 127 0" result="hardAlpha"/>
<feOffset dy="1.34545"/>
<feGaussianBlur stdDeviation="0.672727"/>
<feComposite in2="hardAlpha" operator="out"/>
<feColorMatrix type="matrix" values="0 0 0 0 0 0 0 0 0 0 0 0 0 0 0 0 0 0 0.25 0"/>
<feBlend mode="normal" in2="BackgroundImageFix" result="effect1_dropShadow_104_37"/>
<feBlend mode="normal" in="SourceGraphic" in2="effect1_dropShadow_104_37" result="shape"/>
</filter>
<clipPath id="clip0_104_37">
<rect width="9.41818" height="13.4545" fill="white" transform="translate(9.16357 3.78179)"/>
</clipPath>
</defs>
</svg>
