<svg width="16" height="17" viewBox="0 0 16 17" fill="none" xmlns="http://www.w3.org/2000/svg">
<path d="M7.952 14.8582C11.1191 14.8582 13.6865 12.0773 13.6865 8.6469C13.6865 5.2165 11.1191 2.43561 7.952 2.43561C4.78494 2.43561 2.21753 5.2165 2.21753 8.6469C2.21753 12.0773 4.78494 14.8582 7.952 14.8582Z" stroke="#D9D9D9" stroke-width="0.520489" stroke-miterlimit="10"/>
<path d="M2.5459 6.57654H13.3578" stroke="#D9D9D9" stroke-width="0.520489" stroke-linecap="round" stroke-linejoin="round"/>
<path d="M2.5459 10.7173H13.3578" stroke="#D9D9D9" stroke-width="0.520489" stroke-linecap="round" stroke-linejoin="round"/>
<path d="M7.9518 14.69C9.27141 14.69 10.3412 11.9844 10.3412 8.64689C10.3412 5.30939 9.27141 2.60382 7.9518 2.60382C6.63219 2.60382 5.56244 5.30939 5.56244 8.64689C5.56244 11.9844 6.63219 14.69 7.9518 14.69Z" stroke="#D9D9D9" stroke-width="0.520489" stroke-miterlimit="10"/>
</svg>
