<svg width="59" height="77" viewBox="0 0 59 77" fill="none" xmlns="http://www.w3.org/2000/svg">
<path d="M20.4863 4.80644C18.6232 7.02506 16.679 9.86489 16.112 11.2848C14.9779 14.0359 10.6846 18.9169 10.6846 17.3194C10.6846 16.787 11.4137 14.7458 12.3047 12.7935C14.0869 8.8887 14.3299 7.55753 13.0338 8.44497C11.4137 9.50991 9.0645 16.2545 9.0645 20.0705C9.0645 22.1117 8.65947 24.064 8.09243 24.419C7.44439 24.8627 7.28238 23.7091 7.6874 20.0705C7.93042 17.2307 7.84942 15.0121 7.44439 15.0121C6.39131 15.0121 5.82427 18.5619 5.82427 25.2177C5.82427 28.59 5.41924 32.0511 5.01422 32.761C4.36617 33.826 4.20416 33.6485 4.12315 31.8736C4.04215 30.6312 3.96114 28.945 4.04215 28.0576C4.20416 26.4602 2.98907 26.0164 2.17901 27.4363C1.936 27.8801 2.26002 30.8974 2.98907 34.0922C4.36617 40.6593 4.52818 44.2978 3.23209 40.4818C2.42203 37.997 0.963928 37.1983 0.963928 39.1506C0.963928 39.7719 1.936 42.4342 3.07008 45.0965C4.8522 49.3563 4.93321 50.0662 3.79913 50.6875C3.15108 51.1312 2.58404 52.1074 2.58404 52.9061C2.58404 55.3022 5.74327 60.0944 8.09243 61.2481C10.2796 62.313 10.3606 62.4905 10.0366 67.6377C9.79355 71.4537 9.95557 72.7849 10.6036 72.3412C11.0896 71.9862 11.4947 70.2113 11.5757 68.4364C11.7377 63.2892 12.4667 61.4256 15.545 59.207C18.1371 57.2546 18.3802 56.6334 18.4612 52.7286C18.5422 49.2675 19.0282 47.7589 21.1344 45.0078C23.7265 41.6355 24.0506 39.4169 21.7014 41.5468C20.8103 42.3455 20.4053 42.3455 19.9193 41.5468C19.5952 40.9255 19.7573 40.2156 20.2433 40.0381C21.7014 39.5056 26.2377 31.9623 25.9137 30.8086C25.6707 30.1874 24.6176 31.3411 23.4025 33.2048C22.0254 35.4234 21.2154 36.1333 21.2154 35.1571C21.2154 34.3584 22.6735 31.3411 24.3746 28.5013C27.5338 23.4428 28.9109 18.8281 27.1288 19.1831C26.5617 19.3606 26.3997 18.2069 26.6427 15.6333C27.2098 11.0186 25.9137 12.0835 24.5366 17.5857C23.5645 21.1355 23.4025 21.313 22.1874 20.0705C21.0534 18.7394 21.0534 18.4731 22.2684 17.0532C24.1316 14.7458 26.8858 7.82376 26.8858 5.25016C26.8858 2.23284 25.7517 3.91899 24.0506 9.42117C22.7545 14.0359 21.2154 16.3433 21.2154 13.8584C21.2154 12.0835 19.1902 11.3736 17.9751 12.616C17.4081 13.2372 17.5701 12.4385 18.2992 10.8411C19.0282 9.24368 20.8913 6.67008 22.4304 4.98393C23.9696 3.29778 25.2656 1.70038 25.2656 1.3454C25.2656 -0.074519 23.5645 1.16791 20.4863 4.80644ZM18.4612 18.3844C16.8411 20.1593 16.679 18.4731 18.1371 15.6333C19.0282 13.8584 19.1092 13.7697 19.4332 15.3671C19.5952 16.2545 19.1902 17.6744 18.4612 18.3844ZM14.6539 19.6268C14.6539 20.7805 14.3299 22.4666 14.0059 23.3541C13.1148 25.9277 12.0617 23.5316 12.7098 20.3368C13.3578 17.2307 14.7349 16.787 14.6539 19.6268ZM24.4556 25.2177C22.5115 28.59 21.6204 29.0337 20.8913 26.9039C20.5673 26.0164 20.8913 25.3065 21.9444 25.0402C22.7545 24.8627 23.9696 23.6203 24.5366 22.3779C25.1036 21.1355 25.7517 20.603 25.9137 21.1355C26.0757 21.6679 25.4277 23.5316 24.4556 25.2177ZM20.7293 22.4666C20.4053 23.4428 17.0841 25.6615 15.95 25.6615C14.8969 25.6615 15.707 22.9991 17.0031 22.2004C19.0282 20.8692 21.2154 20.958 20.7293 22.4666ZM12.3047 31.3411L12.2237 34.0922L10.6846 31.9623C9.79355 30.8086 9.0645 28.8563 9.0645 27.6138C9.0645 25.484 9.0645 25.3952 10.6846 26.9926C11.6567 27.9688 12.3047 29.655 12.3047 31.3411ZM19.4332 29.3C19.2712 30.4537 18.1371 31.6073 16.436 32.406L13.7628 33.6485L14.3299 31.2524C14.8969 28.5013 16.031 27.4363 18.2182 27.4363C19.2712 27.4363 19.5952 27.9688 19.4332 29.3ZM10.1176 34.5359C11.5757 36.4883 11.8997 39.5944 10.7656 41.458C10.2796 42.3455 9.63154 41.9017 8.33545 39.5944C5.33824 34.2697 6.71534 30.2762 10.1176 34.5359ZM19.5952 35.8671C19.5952 37.287 15.788 40.7481 14.2489 40.7481C13.6008 40.7481 13.1148 39.7719 13.1148 38.5294C13.1148 36.7545 13.7628 35.9558 15.707 34.9796C18.5422 33.7372 19.5952 33.9147 19.5952 35.8671ZM18.7852 43.7654C18.7852 45.1853 17.7321 46.8714 15.788 48.7351L12.7098 51.4862L12.4667 48.6463C12.1427 45.0078 12.7098 43.4991 14.8969 42.5229C17.8941 41.2805 18.7852 41.5468 18.7852 43.7654ZM9.30752 43.7654C10.7656 45.0078 11.2517 50.51 9.87456 50.51C8.90249 50.51 5.82427 45.274 5.82427 43.5879C5.82427 42.168 7.44439 42.2567 9.30752 43.7654ZM16.274 56.3671C15.707 57.0771 14.6539 58.0533 13.8438 58.497C12.6288 59.207 12.4667 58.9407 12.4667 56.2784C12.4667 53.7935 12.8718 53.0836 14.6539 52.4624C16.436 51.8411 16.8411 51.9299 17.0031 53.3498C17.1651 54.326 16.8411 55.6572 16.274 56.3671ZM10.6846 56.2784C10.6846 58.497 10.3606 60.2719 9.95557 60.2719C9.0645 60.2719 4.20416 54.326 4.20416 53.1723C4.20416 52.6398 5.66226 52.2849 7.44439 52.2849H10.6846V56.2784Z" fill="#D3E12B"/>
<path d="M52.4026 11.3735C52.7266 14.1246 52.6456 15.8995 52.0785 16.3432C51.5925 16.6094 51.1875 16.432 51.1875 15.8107C51.1875 15.2783 50.5394 15.012 49.5674 15.2783C48.2713 15.6333 47.9473 15.2783 47.9473 13.5921C47.9473 12.4384 47.6232 11.4623 47.1372 11.4623C46.7322 11.4623 46.3271 13.2371 46.3271 15.367C46.3271 18.0294 45.9221 19.4493 45.1121 19.8043C44.464 20.0705 43.897 21.2242 43.897 22.2891C43.897 23.4428 43.1679 25.1289 42.1958 26.0164C41.2238 26.9038 40.6567 28.235 40.8998 29.1225C41.0618 30.0099 40.5757 31.1636 39.7657 31.7848C38.8746 32.3173 38.2266 33.6484 38.2266 34.8021C38.2266 35.867 37.4975 37.287 36.6065 37.9082C35.7154 38.5294 34.9863 39.7718 34.9863 40.748C34.9863 41.7242 34.4193 42.5229 33.7713 42.5229C33.0422 42.5229 32.0701 43.5878 31.5031 44.919C31.0171 46.3389 30.045 47.8476 29.4779 48.2913C28.9109 48.8238 28.3439 50.4212 28.2629 51.8411C28.1819 53.3498 27.4528 55.0359 26.5617 55.7459C25.3467 56.7221 25.1846 57.787 25.4277 61.3368C25.8327 65.5965 25.7517 65.774 21.3774 70.5662C18.9472 73.2286 17.1651 75.7134 17.4891 75.9797C17.8131 76.3346 20.1623 74.2935 22.7545 71.4537C26.9668 66.839 27.8578 66.3065 31.2601 66.0403C35.1483 65.774 37.4165 64.4428 37.4165 62.4905C37.4165 61.8692 38.3076 60.7156 39.4417 59.9169C40.5757 59.1182 41.4668 57.787 41.4668 56.8995C41.4668 56.1008 42.1958 54.8584 43.0869 54.2372C43.978 53.616 44.707 52.2848 44.707 51.3086C44.707 50.2437 45.5981 48.6463 46.7322 47.6701C47.8662 46.6939 48.7573 45.0965 48.7573 44.1203C48.7573 43.1441 49.3244 41.8129 50.0534 41.1917C50.7825 40.6593 51.4305 39.0619 51.5115 37.5532C51.6735 36.1333 52.1596 34.0034 52.7266 32.9385C53.2936 31.7848 53.5367 30.2761 53.2936 29.6549C53.0506 28.945 53.2126 28.1463 53.6177 27.88C54.8327 27.0813 54.5897 24.1527 53.2126 23.5315C51.9165 22.9991 51.5115 18.5618 52.7266 18.5618C53.1316 18.5618 53.6987 17.7631 54.0227 16.7869C54.6707 14.4796 53.6177 7.02502 52.6456 7.02502C52.1596 7.02502 52.0785 8.71117 52.4026 11.3735ZM50.1344 21.8454C49.8914 22.7328 49.7294 22.0229 49.7294 20.3367C49.7294 18.6506 49.8914 17.9406 50.1344 18.7393C50.2964 19.6268 50.2964 21.0467 50.1344 21.8454ZM47.4612 22.5553C48.0283 24.2415 47.2182 26.7263 46.2461 26.0164C45.2741 25.3952 45.2741 21.2242 46.2461 21.2242C46.6512 21.2242 47.1372 21.8454 47.4612 22.5553ZM52.4836 26.4601C51.8355 27.525 48.7573 28.3237 48.7573 27.4363C48.7573 26.6376 50.2154 25.8389 51.8355 25.7502C52.4026 25.6614 52.7266 26.0164 52.4836 26.4601ZM45.1121 29.2112C45.6791 31.0748 44.383 34.4471 43.735 33.116C43.4919 32.6722 43.0869 31.2523 42.7629 29.8324C42.3579 28.0575 42.5199 27.4363 43.4109 27.4363C44.059 27.4363 44.788 28.235 45.1121 29.2112ZM51.9975 30.8973C51.9975 31.9623 50.3774 33.2934 48.1903 34.0034C46.0031 34.8021 45.7601 33.5597 47.6232 31.5186C48.9193 30.0099 51.9975 29.5662 51.9975 30.8973ZM42.0338 39.7718C41.0618 41.9017 41.0618 41.9017 40.4137 38.6181C40.0087 36.8432 39.9277 34.7134 40.2517 33.8259C40.7377 32.5835 40.9808 32.761 41.8718 34.9796C42.6819 36.932 42.6819 38.0857 42.0338 39.7718ZM50.3774 37.1095C50.3774 38.3519 47.9473 40.748 46.7322 40.748C46.1651 40.748 45.031 41.0142 44.302 41.3692C43.0869 41.8129 43.0059 41.6355 43.897 39.7718C44.464 38.6181 45.3551 37.3757 45.8411 37.0207C47.1372 36.0445 50.3774 36.1333 50.3774 37.1095ZM39.3606 42.1679C39.6037 43.1441 39.3606 44.6528 38.7126 45.629C37.7405 47.1376 37.5785 47.0489 37.0925 43.9428C36.2014 38.8844 38.0646 37.3757 39.3606 42.1679ZM46.9752 44.4753C46.5702 45.8065 40.7377 49.1788 40.0897 48.3801C39.8467 48.1138 40.2517 46.8714 40.9808 45.629C41.9528 44.0316 43.0059 43.4103 44.788 43.4103C46.4081 43.4103 47.1372 43.7653 46.9752 44.4753ZM35.8774 46.6939C36.4444 48.4688 36.4444 49.7112 35.7154 51.1311C34.3383 53.971 33.6902 53.7047 33.1232 49.9775C32.3131 44.564 34.2573 42.1679 35.8774 46.6939ZM43.0869 50.9536C43.0869 52.4623 40.6567 54.0597 38.3076 54.0597C35.3104 54.0597 36.7685 51.2199 40.2517 50.2437C42.9249 49.5337 43.0869 49.5337 43.0869 50.9536ZM32.1511 56.8108C31.1791 58.4082 30.126 56.5446 30.207 53.3498L30.288 50.0662L31.4221 52.9948C32.0701 54.5922 32.3942 56.2783 32.1511 56.8108ZM39.8467 56.7221C39.8467 57.9645 37.0115 59.3844 34.5003 59.3844C32.7182 59.3844 32.5562 59.2069 33.3662 58.142C34.6623 56.2783 39.8467 55.2134 39.8467 56.7221ZM28.8299 59.1182C29.1539 59.9169 28.8299 61.1593 28.1008 61.958C27.0478 63.2004 26.8858 63.0229 26.8858 60.4493C26.8858 57.432 28.0198 56.6333 28.8299 59.1182ZM35.6344 62.2242C35.2294 63.3779 30.207 65.1528 29.4779 64.3541C29.3159 64.0879 29.559 63.2892 30.126 62.4905C31.3411 60.8931 36.1204 60.6268 35.6344 62.2242Z" fill="#D3E12B"/>
<path d="M56.1288 15.367C55.6428 16.787 54.9947 18.2069 54.8327 18.6506C54.5897 19.0056 54.7517 19.538 55.2377 19.893C56.2098 20.5142 57.9109 16.2545 57.4249 14.2134C57.1819 13.2372 56.7769 13.5921 56.1288 15.367Z" fill="#D3E12B"/>
<path d="M41.1428 20.4255C40.5757 23.6203 41.3048 25.5727 42.3578 23.7978C43.2489 22.2004 43.2489 17.6744 42.3578 17.6744C41.9528 17.6744 41.4668 18.9168 41.1428 20.4255Z" fill="#D3E12B"/>
<path d="M56.2098 26.5488C54.2657 29.3887 54.0227 30.0986 55.1568 30.0986C56.2908 30.0986 59.4501 24.9514 58.64 24.419C58.235 24.1527 57.1009 25.1289 56.2098 26.5488Z" fill="#D3E12B"/>
<path d="M34.8244 29.2999C34.5813 33.6484 34.9864 35.1571 36.1204 33.9147C36.9305 33.0272 36.6875 24.774 35.8774 24.774C35.4724 24.774 34.9864 26.8151 34.8244 29.2999Z" fill="#D3E12B"/>
<path d="M30.126 39.5056C30.126 42.5229 30.45 44.2091 30.936 43.8541C31.4221 43.5879 31.7461 41.3692 31.7461 38.8844C31.7461 36.4883 31.4221 34.5359 30.936 34.5359C30.531 34.5359 30.126 36.7545 30.126 39.5056Z" fill="#D3E12B"/>
<path d="M51.9165 42.7892C49.0003 46.7827 48.5953 47.6701 49.4054 48.2026C49.8104 48.4688 51.2685 46.9602 52.7266 44.7416C55.6428 40.3043 54.9948 38.5294 51.9165 42.7892Z" fill="#D3E12B"/>
<path d="M26.0757 45.0965C26.0757 47.0489 26.4807 48.9125 26.8857 49.1788C27.3718 49.5338 27.6958 48.1138 27.6958 45.7177C27.6958 43.4991 27.3718 41.6355 26.8857 41.6355C26.4807 41.6355 26.0757 43.2329 26.0757 45.0965Z" fill="#D3E12B"/>
<path d="M46.3271 55.6571C45.193 56.9883 43.4109 58.7632 42.2768 59.5619C41.1428 60.3606 40.4947 61.248 40.8187 61.603C41.7908 62.7567 49.5674 55.9234 49.5674 53.971C49.5674 52.5511 48.4333 53.1723 46.3271 55.6571Z" fill="#D3E12B"/>
</svg>
