<svg width="25" height="24" viewBox="0 0 25 24" fill="none" xmlns="http://www.w3.org/2000/svg">
<g clip-path="url(#clip0_109_62)">
<path d="M10.1741 2.07362C9.61294 2.68357 9.02739 3.4643 8.85661 3.85467C8.51503 4.61101 7.22194 5.95289 7.22194 5.51373C7.22194 5.36734 7.44152 4.80619 7.7099 4.26944C8.24666 3.19592 8.31985 2.82996 7.92948 3.07393C7.44152 3.36671 6.73398 5.22095 6.73398 6.27007C6.73398 6.83122 6.61199 7.36797 6.44121 7.46557C6.24602 7.58756 6.19723 7.27038 6.31922 6.27007C6.39241 5.48933 6.36801 4.87938 6.24602 4.87938C5.92885 4.87938 5.75807 5.8553 5.75807 7.68515C5.75807 8.61227 5.63608 9.56379 5.51409 9.75897C5.3189 10.0517 5.27011 10.003 5.24571 9.51499C5.22131 9.17342 5.19691 8.70986 5.22131 8.46588C5.27011 8.02672 4.90414 7.90473 4.66016 8.2951C4.58696 8.41709 4.68456 9.24662 4.90414 10.1249C5.3189 11.9304 5.3677 12.9307 4.97733 11.8816C4.73335 11.1985 4.29419 10.9789 4.29419 11.5156C4.29419 11.6864 4.58696 12.4184 4.92854 13.1503C5.46529 14.3214 5.48969 14.5166 5.14812 14.6874C4.95293 14.8093 4.78215 15.0777 4.78215 15.2973C4.78215 15.9561 5.73367 17.2735 6.44121 17.5907C7.09995 17.8835 7.12435 17.9323 7.02676 19.3474C6.95357 20.3965 7.00236 20.7624 7.19754 20.6405C7.34393 20.5429 7.46592 20.0549 7.49032 19.5669C7.53912 18.1519 7.7587 17.6395 8.68582 17.0296C9.46655 16.4928 9.53975 16.322 9.56415 15.2485C9.58854 14.297 9.73493 13.8822 10.3693 13.1259C11.15 12.1988 11.2476 11.5888 10.5401 12.1744C10.2717 12.394 10.1497 12.394 10.0033 12.1744C9.90572 12.0036 9.95451 11.8084 10.1009 11.7596C10.5401 11.6132 11.9063 9.53939 11.8088 9.22222C11.7356 9.05143 11.4184 9.36861 11.0524 9.88096C10.6377 10.4909 10.3937 10.6861 10.3937 10.4177C10.3937 10.1981 10.8328 9.36861 11.3452 8.58787C12.2967 7.19719 12.7115 5.9285 12.1747 6.02609C12.0039 6.07488 11.9551 5.75771 12.0283 5.05017C12.1991 3.78148 11.8088 4.07425 11.394 5.58692C11.1012 6.56284 11.0524 6.61164 10.6865 6.27007C10.3449 5.9041 10.3449 5.8309 10.7108 5.44054C11.272 4.80619 12.1015 2.90315 12.1015 2.19561C12.1015 1.36608 11.76 1.82964 11.2476 3.34231C10.8572 4.61101 10.3937 5.24535 10.3937 4.56221C10.3937 4.07425 9.78373 3.87907 9.41776 4.22064C9.24697 4.39142 9.29577 4.17184 9.51535 3.73268C9.73493 3.29352 10.2961 2.58598 10.7596 2.12242C11.2232 1.65885 11.6136 1.21969 11.6136 1.1221C11.6136 0.731733 11.1012 1.0733 10.1741 2.07362ZM9.56415 5.80651C9.07619 6.29447 9.02739 5.8309 9.46655 5.05017C9.73493 4.56221 9.75933 4.53781 9.85692 4.97698C9.90572 5.22095 9.78373 5.61132 9.56415 5.80651ZM8.41744 6.14808C8.41744 6.46525 8.31985 6.92881 8.22226 7.17279C7.95388 7.88033 7.63671 7.22159 7.83189 6.34326C8.02707 5.48933 8.44184 5.36734 8.41744 6.14808ZM11.3696 7.68515C10.784 8.61227 10.5157 8.73426 10.2961 8.14871C10.1985 7.90473 10.2961 7.70955 10.6133 7.63635C10.8572 7.58756 11.2232 7.24599 11.394 6.90441C11.5648 6.56284 11.76 6.41645 11.8088 6.56284C11.8576 6.70923 11.6624 7.22159 11.3696 7.68515ZM10.2473 6.92881C10.1497 7.19719 9.14938 7.80714 8.80781 7.80714C8.49064 7.80714 8.73462 7.0752 9.12498 6.85562C9.73493 6.48965 10.3937 6.51405 10.2473 6.92881ZM7.7099 9.36861L7.6855 10.1249L7.22194 9.53939C6.95357 9.22222 6.73398 8.68546 6.73398 8.34389C6.73398 7.75834 6.73398 7.73394 7.22194 8.17311C7.51472 8.44148 7.7099 8.90505 7.7099 9.36861ZM9.85692 8.80745C9.80812 9.12463 9.46655 9.4418 8.9542 9.66138L8.14906 10.003L8.31985 9.34421C8.49064 8.58787 8.83221 8.2951 9.49095 8.2951C9.80812 8.2951 9.90572 8.44148 9.85692 8.80745ZM7.05116 10.2469C7.49032 10.7837 7.58791 11.6376 7.24634 12.15C7.09995 12.394 6.90477 12.272 6.5144 11.6376C5.61168 10.1737 6.02644 9.07583 7.05116 10.2469ZM9.90572 10.6129C9.90572 11.0033 8.75901 11.9548 8.29545 11.9548C8.10027 11.9548 7.95388 11.6864 7.95388 11.3448C7.95388 10.8569 8.14906 10.6373 8.73462 10.3689C9.58854 10.0274 9.90572 10.0761 9.90572 10.6129ZM9.66174 12.7843C9.66174 13.1747 9.34456 13.6382 8.75901 14.1506L7.83189 14.9069L7.7587 14.1262C7.66111 13.1259 7.83189 12.7111 8.49064 12.4427C9.39336 12.1012 9.66174 12.1744 9.66174 12.7843ZM6.80718 12.7843C7.24634 13.1259 7.39273 14.6386 6.97796 14.6386C6.68519 14.6386 5.75807 13.1991 5.75807 12.7355C5.75807 12.3452 6.24602 12.3696 6.80718 12.7843ZM8.9054 16.2488C8.73462 16.444 8.41744 16.7124 8.17346 16.8344C7.80749 17.0296 7.7587 16.9564 7.7587 16.2244C7.7587 15.5413 7.88069 15.3461 8.41744 15.1753C8.9542 15.0045 9.07619 15.0289 9.12498 15.4193C9.17378 15.6877 9.07619 16.0536 8.9054 16.2488ZM7.22194 16.2244C7.22194 16.8344 7.12435 17.3223 7.00236 17.3223C6.73398 17.3223 5.27011 15.6877 5.27011 15.3705C5.27011 15.2241 5.70927 15.1265 6.24602 15.1265H7.22194V16.2244Z" fill="#D3E12B"/>
<path d="M19.7869 3.879C19.8845 4.63534 19.8601 5.12329 19.6893 5.24529C19.543 5.31848 19.421 5.26968 19.421 5.0989C19.421 4.95251 19.2258 4.87931 18.933 4.95251C18.5426 5.0501 18.445 4.95251 18.445 4.48895C18.445 4.17178 18.3475 3.9034 18.2011 3.9034C18.0791 3.9034 17.9571 4.39136 17.9571 4.97691C17.9571 5.70885 17.8351 6.09921 17.5911 6.1968C17.3959 6.27 17.2251 6.58717 17.2251 6.87995C17.2251 7.19712 17.0056 7.66068 16.7128 7.90466C16.42 8.14864 16.2492 8.51461 16.3224 8.75859C16.3712 9.00257 16.2248 9.31974 15.9809 9.49053C15.7125 9.63691 15.5173 10.0029 15.5173 10.3201C15.5173 10.6128 15.2977 11.0032 15.0293 11.174C14.761 11.3448 14.5414 11.6863 14.5414 11.9547C14.5414 12.2231 14.3706 12.4427 14.1754 12.4427C13.9558 12.4427 13.663 12.7355 13.4923 13.1014C13.3459 13.4918 13.0531 13.9066 12.8823 14.0285C12.7115 14.1749 12.5407 14.6141 12.5163 15.0045C12.4919 15.4192 12.2724 15.8828 12.004 16.078C11.638 16.3464 11.5892 16.6391 11.6624 17.615C11.7844 18.7861 11.76 18.8349 10.4425 20.1524C9.71058 20.8844 9.17383 21.5675 9.27142 21.6407C9.36901 21.7383 10.0765 21.1771 10.8573 20.3964C12.126 19.1277 12.3944 18.9813 13.4191 18.9081C14.5902 18.8349 15.2733 18.469 15.2733 17.9322C15.2733 17.7614 15.5417 17.4443 15.8833 17.2247C16.2248 17.0051 16.4932 16.6391 16.4932 16.3951C16.4932 16.1756 16.7128 15.834 16.9812 15.6632C17.2495 15.4924 17.4691 15.1265 17.4691 14.8581C17.4691 14.5653 17.7375 14.1261 18.0791 13.8578C18.4206 13.5894 18.689 13.1502 18.689 12.8818C18.689 12.6135 18.8598 12.2475 19.0794 12.0767C19.299 11.9303 19.4942 11.4912 19.5186 11.0764C19.5674 10.686 19.7137 10.1005 19.8845 9.8077C20.0553 9.49053 20.1285 9.07576 20.0553 8.90498C19.9821 8.70979 20.0309 8.49021 20.1529 8.41702C20.5189 8.19744 20.4457 7.3923 20.0309 7.22152C19.6405 7.07513 19.5186 5.85523 19.8845 5.85523C20.0065 5.85523 20.1773 5.63565 20.2749 5.36728C20.4701 4.73293 20.1529 2.6835 19.8601 2.6835C19.7137 2.6835 19.6893 3.14706 19.7869 3.879ZM19.1038 6.75796C19.0306 7.00194 18.9818 6.80675 18.9818 6.34319C18.9818 5.87963 19.0306 5.68445 19.1038 5.90403C19.1526 6.14801 19.1526 6.53838 19.1038 6.75796ZM18.2987 6.95314C18.4694 7.4167 18.2255 8.09984 17.9327 7.90466C17.6399 7.73388 17.6399 6.58717 17.9327 6.58717C18.0547 6.58717 18.2011 6.75796 18.2987 6.95314ZM19.8113 8.02665C19.6161 8.31943 18.689 8.53901 18.689 8.29503C18.689 8.07545 19.1282 7.85586 19.6161 7.83147C19.7869 7.80707 19.8845 7.90466 19.8113 8.02665ZM17.5911 8.78299C17.7619 9.29534 17.3715 10.2225 17.1764 9.8565C17.1032 9.73451 16.9812 9.34414 16.8836 8.95377C16.7616 8.46581 16.8104 8.29503 17.0788 8.29503C17.2739 8.29503 17.4935 8.51461 17.5911 8.78299ZM19.6649 9.24655C19.6649 9.53932 19.177 9.90529 18.5182 10.1005C17.8595 10.3201 17.7863 9.97849 18.3475 9.41733C18.7378 9.00257 19.6649 8.88058 19.6649 9.24655ZM16.664 11.6863C16.3712 12.2719 16.3712 12.2719 16.176 11.3692C16.054 10.8812 16.0296 10.2957 16.1272 10.0517C16.2736 9.71011 16.3468 9.7589 16.6152 10.3689C16.8592 10.9056 16.8592 11.2228 16.664 11.6863ZM19.177 10.9544C19.177 11.296 18.445 11.9547 18.0791 11.9547C17.9083 11.9547 17.5667 12.0279 17.3471 12.1255C16.9812 12.2475 16.9568 12.1987 17.2251 11.6863C17.3959 11.3692 17.6643 11.0276 17.8107 10.93C18.2011 10.6616 19.177 10.686 19.177 10.9544ZM15.8589 12.3451C15.9321 12.6135 15.8589 13.0282 15.6637 13.2966C15.3709 13.7114 15.3221 13.687 15.1757 12.833C14.9073 11.4424 15.4685 11.0276 15.8589 12.3451ZM18.1523 12.9794C18.0303 13.3454 16.2736 14.2725 16.0784 14.0529C16.0052 13.9797 16.1272 13.6382 16.3468 13.2966C16.6396 12.8574 16.9568 12.6867 17.4935 12.6867C17.9815 12.6867 18.2011 12.7842 18.1523 12.9794ZM14.8098 13.5894C14.9805 14.0773 14.9805 14.4189 14.761 14.8093C14.3462 15.59 14.151 15.5168 13.9802 14.4921C13.7362 13.0038 14.3218 12.3451 14.8098 13.5894ZM16.9812 14.7605C16.9812 15.1752 16.2492 15.6144 15.5417 15.6144C14.639 15.6144 15.0781 14.8337 16.1272 14.5653C16.9324 14.3701 16.9812 14.3701 16.9812 14.7605ZM13.6874 16.3707C13.3947 16.8099 13.0775 16.2976 13.1019 15.4192L13.1263 14.5165L13.4679 15.3216C13.663 15.7608 13.7606 16.2244 13.6874 16.3707ZM16.0052 16.3464C16.0052 16.6879 15.1513 17.0783 14.395 17.0783C13.8582 17.0783 13.8094 17.0295 14.0534 16.7367C14.4438 16.2244 16.0052 15.9316 16.0052 16.3464ZM12.6871 17.0051C12.7847 17.2247 12.6871 17.5662 12.4675 17.7858C12.1504 18.1274 12.1016 18.0786 12.1016 17.3711C12.1016 16.5415 12.4432 16.322 12.6871 17.0051ZM14.7366 17.859C14.6146 18.1762 13.1019 18.6642 12.8823 18.4446C12.8335 18.3714 12.9067 18.1518 13.0775 17.9322C13.4435 17.4931 14.8829 17.4199 14.7366 17.859Z" fill="#D3E12B"/>
<path d="M20.9091 4.9769C20.7627 5.36727 20.5675 5.75763 20.5187 5.87962C20.4455 5.97721 20.4943 6.1236 20.6407 6.22119C20.9335 6.39198 21.4459 5.22088 21.2995 4.65972C21.2263 4.39135 21.1043 4.48894 20.9091 4.9769Z" fill="#D3E12B"/>
<path d="M16.3956 6.36757C16.2248 7.24589 16.4444 7.78265 16.7615 7.29469C17.0299 6.85552 17.0299 5.61123 16.7615 5.61123C16.6395 5.61123 16.4931 5.9528 16.3956 6.36757Z" fill="#D3E12B"/>
<path d="M20.9336 8.05106C20.3481 8.83179 20.2749 9.02698 20.6165 9.02698C20.958 9.02698 21.9096 7.6119 21.6656 7.46551C21.5436 7.39232 21.202 7.66069 20.9336 8.05106Z" fill="#D3E12B"/>
<path d="M14.4925 8.80742C14.4193 10.0029 14.5413 10.4177 14.8828 10.0761C15.1268 9.83213 15.0536 7.56313 14.8096 7.56313C14.6877 7.56313 14.5413 8.12428 14.4925 8.80742Z" fill="#D3E12B"/>
<path d="M13.0775 11.6132C13.0775 12.4427 13.1751 12.9063 13.3215 12.8087C13.4679 12.7355 13.5655 12.1255 13.5655 11.4424C13.5655 10.7836 13.4679 10.2469 13.3215 10.2469C13.1995 10.2469 13.0775 10.8568 13.0775 11.6132Z" fill="#D3E12B"/>
<path d="M19.6405 12.5159C18.7622 13.6138 18.6402 13.8578 18.8842 14.0042C19.0062 14.0773 19.4454 13.6626 19.8845 13.0526C20.7629 11.8327 20.5677 11.3448 19.6405 12.5159Z" fill="#D3E12B"/>
<path d="M11.8576 13.1502C11.8576 13.687 11.9796 14.1994 12.1016 14.2725C12.248 14.3701 12.3456 13.9798 12.3456 13.321C12.3456 12.7111 12.248 12.1987 12.1016 12.1987C11.9796 12.1987 11.8576 12.6379 11.8576 13.1502Z" fill="#D3E12B"/>
<path d="M17.957 16.0536C17.6154 16.4195 17.0787 16.9075 16.7371 17.1271C16.3955 17.3467 16.2004 17.5906 16.2979 17.6882C16.5907 18.0054 18.9329 16.1268 18.9329 15.59C18.9329 15.1996 18.5914 15.3704 17.957 16.0536Z" fill="#D3E12B"/>
</g>
<defs>
<clipPath id="clip0_109_62">
<rect width="23.422" height="23.422" fill="white" transform="translate(0.634521 0.243774)"/>
</clipPath>
</defs>
</svg>
