<svg width="53" height="60" viewBox="0 0 53 60" fill="none" xmlns="http://www.w3.org/2000/svg">
<rect width="53" height="60" fill="#4B9B2F"/>
<path d="M21.5866 4.68747C20.3168 6.24997 18.9918 8.24997 18.6053 9.24997C17.8324 11.1875 14.9064 14.625 14.9064 13.5C14.9064 13.125 15.4032 11.6875 16.0105 10.3125C17.2251 7.56247 17.3907 6.62497 16.5074 7.24997C15.4032 7.99997 13.8022 12.75 13.8022 15.4375C13.8022 16.875 13.5262 18.25 13.1397 18.5C12.698 18.8125 12.5876 18 12.8637 15.4375C13.0293 13.4375 12.9741 11.875 12.698 11.875C11.9803 11.875 11.5939 14.375 11.5939 19.0625C11.5939 21.4375 11.3178 23.875 11.0418 24.375C10.6001 25.125 10.4897 25 10.4345 23.75C10.3793 22.875 10.3241 21.6875 10.3793 21.0625C10.4897 19.9375 9.66158 19.625 9.1095 20.625C8.94387 20.9375 9.16471 23.0625 9.66158 25.3125C10.6001 29.9375 10.7105 32.5 9.82721 29.8125C9.27512 28.0625 8.28137 27.5 8.28137 28.875C8.28137 29.3125 8.94387 31.1875 9.71679 33.0625C10.9314 36.0625 10.9866 36.5625 10.2137 37C9.772 37.3125 9.38554 38 9.38554 38.5625C9.38554 40.25 11.5387 43.625 13.1397 44.4375C14.6303 45.1875 14.6855 45.3125 14.4647 48.9375C14.2991 51.625 14.4095 52.5625 14.8512 52.25C15.1824 52 15.4585 50.75 15.5137 49.5C15.6241 45.875 16.121 44.5625 18.2189 43C19.9855 41.625 20.1512 41.1875 20.2064 38.4375C20.2616 36 20.5928 34.9375 22.0283 33C23.7949 30.625 24.0158 29.0625 22.4147 30.5625C21.8074 31.125 21.5314 31.125 21.2001 30.5625C20.9793 30.125 21.0897 29.625 21.421 29.5C22.4147 29.125 25.5064 23.8125 25.2855 23C25.1199 22.5625 24.4022 23.375 23.5741 24.6875C22.6355 26.25 22.0835 26.75 22.0835 26.0625C22.0835 25.5 23.0772 23.375 24.2366 21.375C26.3897 17.8125 27.3283 14.5625 26.1137 14.8125C25.7272 14.9375 25.6168 14.125 25.7824 12.3125C26.1689 9.06247 25.2855 9.81247 24.347 13.6875C23.6845 16.1875 23.5741 16.3125 22.746 15.4375C21.973 14.5 21.973 14.3125 22.8012 13.3125C24.071 11.6875 25.948 6.81247 25.948 4.99997C25.948 2.87497 25.1751 4.06247 24.0158 7.93747C23.1324 11.1875 22.0835 12.8125 22.0835 11.0625C22.0835 9.81247 20.7032 9.31247 19.8751 10.1875C19.4887 10.625 19.5991 10.0625 20.096 8.93747C20.5928 7.81247 21.8626 5.99997 22.9116 4.81247C23.9605 3.62497 24.8439 2.49997 24.8439 2.24997C24.8439 1.24997 23.6845 2.12497 21.5866 4.68747ZM20.2064 14.25C19.1022 15.5 18.9918 14.3125 19.9855 12.3125C20.5928 11.0625 20.648 11 20.8689 12.125C20.9793 12.75 20.7032 13.75 20.2064 14.25ZM17.6116 15.125C17.6116 15.9375 17.3907 17.125 17.1699 17.75C16.5626 19.5625 15.8449 17.875 16.2866 15.625C16.7282 13.4375 17.6668 13.125 17.6116 15.125ZM24.2918 19.0625C22.9668 21.4375 22.3595 21.75 21.8626 20.25C21.6418 19.625 21.8626 19.125 22.5803 18.9375C23.1324 18.8125 23.9605 17.9375 24.347 17.0625C24.7335 16.1875 25.1751 15.8125 25.2855 16.1875C25.396 16.5625 24.9543 17.875 24.2918 19.0625ZM21.7522 17.125C21.5314 17.8125 19.2678 19.375 18.4949 19.375C17.7772 19.375 18.3293 17.5 19.2126 16.9375C20.5928 16 22.0835 16.0625 21.7522 17.125ZM16.0105 23.375L15.9553 25.3125L14.9064 23.8125C14.2991 23 13.8022 21.625 13.8022 20.75C13.8022 19.25 13.8022 19.1875 14.9064 20.3125C15.5689 21 16.0105 22.1875 16.0105 23.375ZM20.8689 21.9375C20.7585 22.75 19.9855 23.5625 18.8262 24.125L17.0043 25L17.3907 23.3125C17.7772 21.375 18.5501 20.625 20.0408 20.625C20.7585 20.625 20.9793 21 20.8689 21.9375ZM14.5199 25.625C15.5137 27 15.7345 29.1875 14.9616 30.5C14.6303 31.125 14.1887 30.8125 13.3053 29.1875C11.2626 25.4375 12.2012 22.625 14.5199 25.625ZM20.9793 26.5625C20.9793 27.5625 18.3845 30 17.3355 30C16.8939 30 16.5626 29.3125 16.5626 28.4375C16.5626 27.1875 17.0043 26.625 18.3293 25.9375C20.2616 25.0625 20.9793 25.1875 20.9793 26.5625ZM20.4272 32.125C20.4272 33.125 19.7095 34.3125 18.3845 35.625L16.2866 37.5625L16.121 35.5625C15.9001 33 16.2866 31.9375 17.7772 31.25C19.8199 30.375 20.4272 30.5625 20.4272 32.125ZM13.9678 32.125C14.9616 33 15.2928 36.875 14.3543 36.875C13.6918 36.875 11.5939 33.1875 11.5939 32C11.5939 31 12.698 31.0625 13.9678 32.125ZM18.7157 41C18.3293 41.5 17.6116 42.1875 17.0595 42.5C16.2314 43 16.121 42.8125 16.121 40.9375C16.121 39.1875 16.397 38.6875 17.6116 38.25C18.8262 37.8125 19.1022 37.875 19.2126 38.875C19.323 39.5625 19.1022 40.5 18.7157 41ZM14.9064 40.9375C14.9064 42.5 14.6855 43.75 14.4095 43.75C13.8022 43.75 10.4897 39.5625 10.4897 38.75C10.4897 38.375 11.4835 38.125 12.698 38.125H14.9064V40.9375Z" fill="#D2E02F"/>
<path d="M43.3387 9.31251C43.5596 11.25 43.5044 12.5 43.1179 12.8125C42.7867 13 42.5106 12.875 42.5106 12.4375C42.5106 12.0625 42.069 11.875 41.4065 12.0625C40.5231 12.3125 40.3023 12.0625 40.3023 10.875C40.3023 10.0625 40.0815 9.37501 39.7502 9.37501C39.4742 9.37501 39.1981 10.625 39.1981 12.125C39.1981 14 38.9221 15 38.37 15.25C37.9283 15.4375 37.5419 16.25 37.5419 17C37.5419 17.8125 37.045 19 36.3825 19.625C35.72 20.25 35.3335 21.1875 35.4992 21.8125C35.6096 22.4375 35.2783 23.25 34.7262 23.6875C34.119 24.0625 33.6773 25 33.6773 25.8125C33.6773 26.5625 33.1804 27.5625 32.5731 28C31.9658 28.4375 31.469 29.3125 31.469 30C31.469 30.6875 31.0825 31.25 30.6408 31.25C30.144 31.25 29.4815 32 29.095 32.9375C28.7637 33.9375 28.1012 35 27.7148 35.3125C27.3283 35.6875 26.9419 36.8125 26.8867 37.8125C26.8315 38.875 26.3346 40.0625 25.7273 40.5625C24.8992 41.25 24.7887 42 24.9544 44.5C25.2304 47.5 25.1752 47.625 22.194 51C20.5377 52.875 19.3231 54.625 19.544 54.8125C19.7648 55.0625 21.3658 53.625 23.1325 51.625C26.0033 48.375 26.6106 48 28.9294 47.8125C31.5794 47.625 33.1252 46.6875 33.1252 45.3125C33.1252 44.875 33.7325 44.0625 34.5054 43.5C35.2783 42.9375 35.8856 42 35.8856 41.375C35.8856 40.8125 36.3825 39.9375 36.9898 39.5C37.5971 39.0625 38.094 38.125 38.094 37.4375C38.094 36.6875 38.7012 35.5625 39.4742 34.875C40.2471 34.1875 40.8544 33.0625 40.8544 32.375C40.8544 31.6875 41.2408 30.75 41.7377 30.3125C42.2346 29.9375 42.6762 28.8125 42.7315 27.75C42.8419 26.75 43.1731 25.25 43.5596 24.5C43.946 23.6875 44.1117 22.625 43.946 22.1875C43.7804 21.6875 43.8908 21.125 44.1669 20.9375C44.995 20.375 44.8294 18.3125 43.8908 17.875C43.0075 17.5 42.7315 14.375 43.5596 14.375C43.8356 14.375 44.2221 13.8125 44.4429 13.125C44.8846 11.5 44.1669 6.25001 43.5044 6.25001C43.1731 6.25001 43.1179 7.43751 43.3387 9.31251ZM41.7929 16.6875C41.6273 17.3125 41.5169 16.8125 41.5169 15.625C41.5169 14.4375 41.6273 13.9375 41.7929 14.5C41.9033 15.125 41.9033 16.125 41.7929 16.6875ZM39.971 17.1875C40.3575 18.375 39.8054 20.125 39.1429 19.625C38.4804 19.1875 38.4804 16.25 39.1429 16.25C39.419 16.25 39.7502 16.6875 39.971 17.1875ZM43.394 19.9375C42.9523 20.6875 40.8544 21.25 40.8544 20.625C40.8544 20.0625 41.8481 19.5 42.9523 19.4375C43.3387 19.375 43.5596 19.625 43.394 19.9375ZM38.37 21.875C38.7565 23.1875 37.8731 25.5625 37.4315 24.625C37.2658 24.3125 36.9898 23.3125 36.769 22.3125C36.4929 21.0625 36.6033 20.625 37.2106 20.625C37.6523 20.625 38.1492 21.1875 38.37 21.875ZM43.0627 23.0625C43.0627 23.8125 41.9585 24.75 40.4679 25.25C38.9773 25.8125 38.8117 24.9375 40.0815 23.5C40.9648 22.4375 43.0627 22.125 43.0627 23.0625ZM36.2721 29.3125C35.6096 30.8125 35.6096 30.8125 35.1679 28.5C34.8919 27.25 34.8367 25.75 35.0575 25.125C35.3887 24.25 35.5544 24.375 36.1617 25.9375C36.7137 27.3125 36.7137 28.125 36.2721 29.3125ZM41.9585 27.4375C41.9585 28.3125 40.3023 30 39.4742 30C39.0877 30 38.3148 30.1875 37.8179 30.4375C36.9898 30.75 36.9346 30.625 37.5419 29.3125C37.9283 28.5 38.5356 27.625 38.8669 27.375C39.7502 26.6875 41.9585 26.75 41.9585 27.4375ZM34.4502 31C34.6158 31.6875 34.4502 32.75 34.0085 33.4375C33.346 34.5 33.2356 34.4375 32.9044 32.25C32.2971 28.6875 33.5669 27.625 34.4502 31ZM39.6398 32.625C39.3637 33.5625 35.3887 35.9375 34.9471 35.375C34.7815 35.1875 35.0575 34.3125 35.5544 33.4375C36.2169 32.3125 36.9346 31.875 38.1492 31.875C39.2533 31.875 39.7502 32.125 39.6398 32.625ZM32.0762 34.1875C32.4627 35.4375 32.4627 36.3125 31.9658 37.3125C31.0273 39.3125 30.5856 39.125 30.1992 36.5C29.6471 32.6875 30.9721 31 32.0762 34.1875ZM36.9898 37.1875C36.9898 38.25 35.3335 39.375 33.7325 39.375C31.6898 39.375 32.6835 37.375 35.0575 36.6875C36.8794 36.1875 36.9898 36.1875 36.9898 37.1875ZM29.5367 41.3125C28.8742 42.4375 28.1565 41.125 28.2117 38.875L28.2669 36.5625L29.0398 38.625C29.4815 39.75 29.7023 40.9375 29.5367 41.3125ZM34.7815 41.25C34.7815 42.125 32.8492 43.125 31.1377 43.125C29.9231 43.125 29.8127 43 30.3648 42.25C31.2481 40.9375 34.7815 40.1875 34.7815 41.25ZM27.2731 42.9375C27.494 43.5 27.2731 44.375 26.7762 44.9375C26.0585 45.8125 25.9481 45.6875 25.9481 43.875C25.9481 41.75 26.721 41.1875 27.2731 42.9375ZM31.9106 45.125C31.6346 45.9375 28.2117 47.1875 27.7148 46.625C27.6044 46.4375 27.77 45.875 28.1565 45.3125C28.9846 44.1875 32.2419 44 31.9106 45.125Z" fill="#D3E12B"/>
<path d="M45.8782 12.1249C45.5469 13.1249 45.1053 14.1249 44.9949 14.4374C44.8292 14.6874 44.9396 15.0624 45.2709 15.3124C45.9334 15.7499 47.0928 12.7499 46.7615 11.3124C46.5959 10.6249 46.3199 10.8749 45.8782 12.1249Z" fill="#D9D9D9"/>
<path d="M35.6647 15.6875C35.2782 17.9375 35.7751 19.3125 36.4928 18.0625C37.1001 16.9375 37.1001 13.75 36.4928 13.75C36.2168 13.75 35.8855 14.625 35.6647 15.6875Z" fill="#D9D9D9"/>
<path d="M45.9334 19.9999C44.6084 21.9999 44.4428 22.4999 45.2157 22.4999C45.9887 22.4999 48.1418 18.8749 47.5897 18.4999C47.3137 18.3124 46.5407 18.9999 45.9334 19.9999Z" fill="#D9D9D9"/>
<path d="M31.3584 21.9374C31.1928 24.9999 31.4688 26.0624 32.2418 25.1874C32.7938 24.5624 32.6282 18.7499 32.0761 18.7499C31.8001 18.7499 31.4688 20.1874 31.3584 21.9374Z" fill="#D9D9D9"/>
<path d="M28.1563 29.125C28.1563 31.25 28.3771 32.4375 28.7084 32.1875C29.0396 32 29.2605 30.4375 29.2605 28.6875C29.2605 27 29.0396 25.625 28.7084 25.625C28.4324 25.625 28.1563 27.1875 28.1563 29.125Z" fill="#D9D9D9"/>
<path d="M43.0074 31.4374C41.0199 34.2499 40.7438 34.8749 41.2959 35.2499C41.572 35.4374 42.5657 34.3749 43.5595 32.8124C45.547 29.6874 45.1053 28.4374 43.0074 31.4374Z" fill="#D9D9D9"/>
<path d="M25.3959 33.0625C25.3959 34.4375 25.6719 35.75 25.948 35.9375C26.2792 36.1875 26.5 35.1875 26.5 33.5C26.5 31.9375 26.2792 30.625 25.948 30.625C25.6719 30.625 25.3959 31.75 25.3959 33.0625Z" fill="#D9D9D9"/>
<path d="M39.198 40.4999C38.4251 41.4374 37.2105 42.6874 36.4376 43.2499C35.6646 43.8124 35.223 44.4374 35.4438 44.6874C36.1063 45.4999 41.4063 40.6874 41.4063 39.3124C41.4063 38.3124 40.6334 38.7499 39.198 40.4999Z" fill="#D9D9D9"/>
</svg>
