<svg width="16" height="17" viewBox="0 0 16 17" fill="none" xmlns="http://www.w3.org/2000/svg">
<path d="M5.52556 8.0747C6.01731 9.17462 6.83845 10.0618 7.85519 10.5916C7.93019 10.63 8.01315 10.6467 8.09589 10.6399C8.17863 10.6331 8.25832 10.603 8.32709 10.5527L9.82044 9.47223C9.88642 9.42376 9.96266 9.39419 10.042 9.38627C10.1214 9.37835 10.2014 9.39234 10.2744 9.42694L13.07 10.7274C13.1655 10.7705 13.2453 10.8464 13.2972 10.9434C13.349 11.0405 13.3699 11.1533 13.3567 11.2645C13.2681 12.0135 12.9305 12.702 12.4072 13.2009C11.8838 13.6999 11.2106 13.9752 10.5134 13.9754C8.35878 13.9754 6.29246 13.0484 4.76894 11.3982C3.24543 9.74796 2.38953 7.50982 2.38953 5.17609C2.38968 4.4209 2.64388 3.69165 3.10456 3.12479C3.56523 2.55793 4.20082 2.1923 4.89238 2.09633C4.99503 2.08205 5.09916 2.10471 5.18875 2.16083C5.27834 2.21695 5.34841 2.3034 5.38818 2.40689L6.58883 5.44137C6.62005 5.51923 6.63312 5.60422 6.62687 5.68884C6.62061 5.77347 6.59524 5.85513 6.55299 5.92662L5.55543 7.57003C5.51102 7.64436 5.48495 7.72979 5.47972 7.81814C5.4745 7.9065 5.49028 7.99483 5.52556 8.0747V8.0747Z" stroke="#D9D9D9" stroke-width="0.520489" stroke-linecap="round" stroke-linejoin="round"/>
</svg>
