<svg width="95" height="201" viewBox="0 0 95 201" fill="none" xmlns="http://www.w3.org/2000/svg">
<path d="M93.6096 1.50103L50.2748 200.18L16.008 199.921C13.1996 199.9 11.1233 199.884 9.48198 199.737C7.84644 199.591 6.68674 199.318 5.70324 198.808C3.92263 197.884 2.48032 196.419 1.58304 194.625C1.08744 193.634 0.832136 192.47 0.710778 190.833C0.588983 189.189 0.604264 187.113 0.625459 184.305L1.89332 16.3093C1.91452 13.5009 1.93057 11.4246 2.07716 9.78323C2.22322 8.14769 2.49606 6.98798 3.00656 6.00449C3.93082 4.22388 5.39506 2.78156 7.18942 1.88428C8.18052 1.38868 9.3442 1.13339 10.9818 1.01203C12.6252 0.890226 14.7014 0.905514 17.5099 0.92671L93.6096 1.50103Z" fill="#6DCA41" stroke="#6DCA41"/>
</svg>
